<?xml version="1.0" encoding="utf-8"?>
<!-- Generator: Adobe Illustrator 25.2.1, SVG Export Plug-In . SVG Version: 6.00 Build 0)  -->
<svg width="24px" height="24px" version="1.1" id="Layer_1" xmlns="http://www.w3.org/2000/svg" xmlns:xlink="http://www.w3.org/1999/xlink" x="0px" y="0px"
	 viewBox="0 0 74.4 74.4" style="enable-background:new 0 0 74.4 74.4;" xml:space="preserve" preserveAspectRatio="xMinYMid meet">
<g>
<path
   style="fill:#0000ff"
   d="m 25.381801,58.786971 c 0.528538,-0.260633 2.117351,-0.0513 2.973482,0.468154 -1.037654,-1.268035 -2.366822,-2.775257 -3.49321,-3.949265 -0.369644,-1.421115 -0.211894,-2.851139 -0.132431,-4.302111 l 0.01596,-0.119927 c -0.444008,1.161307 -1.007424,2.290448 -1.310158,3.512952 -0.135885,1.396207 1.211536,3.332817 1.946152,4.390197 z m 26.211662,4.921369 c -1.089881,0.07473 -2.629602,0.100787 -2.99774,0.0805 -1.492134,-0.064 -1.253152,-1.626985 -1.515627,-2.452766 -0.42007,-2.803135 0.555634,-5.620788 0.524959,-8.424417 -0.01086,-0.99536 -1.288457,-5.131029 -1.744894,-6.390485 -2.023238,1.46186 -11.328769,-0.189536 -13.177961,-1.084766 -0.642879,2.927846 -2.554046,6.864245 -0.974347,9.839597 1.917419,3.077791 3.262907,4.704442 5.348555,4.890021 2.085641,0.185581 2.55658,2.781034 2.051972,3.708099 -0.446566,0.640698 -1.231616,0.756993 -1.89845,0.912221 -2.364864,0.134604 -3.493819,0.154397 -3.964914,-0.731758 -1.240269,-0.412888 -3.116994,-2.701519 -4.315672,-4.136164 0.2791,0.572899 0.09442,1.852649 -0.158631,2.373093 -0.445364,0.300388 -5.119896,1.035442 -5.411854,-0.07159 -0.833838,-1.071405 -5.213722,-6.233116 -5.809467,-10.340577 1.584775,-3.304113 1.436164,-5.407825 2.604307,-9.005401 -0.67371,-2.629435 -1.452319,-5.480243 -1.275279,-8.782874 l 0.06392,-0.382371 C 3.2833599,37.544966 -0.26805763,26.669597 3.1599121,17.844001 3.9205635,16.548583 5.1856835,17.46509 4.4470285,18.983532 2.3685859,32.702782 13.74523,30.923377 21.044437,28.718875 c 2.222118,-3.008508 5.401078,-3.465445 8.322802,-3.859695 4.370902,-0.549145 9.624134,2.311395 12.293254,2.394369 2.104033,0.06533 3.738501,-0.184258 5.973469,-0.307316 0.600392,-0.03299 1.218133,0.21725 1.711685,0.252387 1.69131,0.08528 3.498294,0.647625 5.130064,1.126994 1.477475,-2.777733 2.750812,-4.182188 3.562218,-5.346298 0.719201,-1.031979 0.285377,-4.713682 1.506192,-5.185628 1.469536,0.25585 2.221509,2.785816 3.059691,3.965267 1.982083,0.08891 3.697791,1.063156 5.505993,1.64183 1.966972,-0.784542 2.537725,-2.113116 4.449172,-2.288796 -0.135137,2.88116 -0.70455,4.437543 -1.788435,5.933054 0.113141,2.912504 -0.594107,4.677225 -1.329464,7.092875 -1.558278,2.873079 -3.897732,3.976814 -5.6977,4.585015 -1.099291,-0.128997 -0.947406,0.646143 -0.947406,0.646143 -1.396358,6.080031 -5.530375,6.455641 -8.074402,8.756974 -2.819335,2.610795 0.902221,11.934895 1.804607,13.633799 0.902386,1.698908 3.420953,2.320636 2.443612,3.854088 -0.299024,0.506423 -0.756177,0.687547 -1.244769,0.884012 -5.71115,0.701732 -5.185145,-1.131613 -6.131524,-2.789447 z"
   id="path2" />
</g>
</svg>
